<svg xmlns="http://www.w3.org/2000/svg" version="1.1" xmlns:xlink="http://www.w3.org/1999/xlink" xmlns:svgjs="http://svgjs.dev/svgjs" width="1920" height="400" preserveAspectRatio="none" viewBox="0 0 1920 400"><g mask="url(&quot;#SvgjsMask1001&quot;)" fill="none"><path d="M147.77 -117.89L275.95 -43.89L275.95 104.11L147.77 178.11L19.59 104.11L19.59 -43.89zM404.12 -117.89L532.3 -43.89L532.3 104.11L404.12 178.11L275.95 104.11L275.95 -43.89zM404.12 326.11L532.3 400.11L532.3 548.11L404.12 622.11L275.95 548.11L275.95 400.11zM660.47 -117.89L788.65 -43.89L788.65 104.11L660.47 178.11L532.3 104.11L532.3 -43.89zM788.65 104.11L916.82 178.11L916.82 326.11L788.65 400.11L660.47 326.11L660.47 178.11zM660.47 326.11L788.65 400.11L788.65 548.11L660.47 622.11L532.3 548.11L532.3 400.11zM916.82 -117.89L1045 -43.89L1045 104.11L916.82 178.11L788.65 104.11L788.65 -43.89zM916.82 326.11L1045 400.11L1045 548.11L916.82 622.11L788.65 548.11L788.65 400.11zM1301.35 104.11L1429.52 178.11L1429.52 326.11L1301.35 400.11L1173.17 326.11L1173.17 178.11zM1173.17 326.11L1301.35 400.11L1301.35 548.11L1173.17 622.11L1045 548.11L1045 400.11zM1685.87 326.11L1814.05 400.11L1814.05 548.11L1685.87 622.11L1557.7 548.11L1557.7 400.11zM1942.23 326.11L2070.4 400.11L2070.4 548.11L1942.23 622.11L1814.05 548.11L1814.05 400.11z" stroke="rgba(11, 45, 78, 0.08)" stroke-width="2"></path><path d="M132.97 -117.89 a14.8 14.8 0 1 0 29.6 0 a14.8 14.8 0 1 0 -29.6 0zM261.15 -43.89 a14.8 14.8 0 1 0 29.6 0 a14.8 14.8 0 1 0 -29.6 0zM261.15 104.11 a14.8 14.8 0 1 0 29.6 0 a14.8 14.8 0 1 0 -29.6 0zM132.97 178.11 a14.8 14.8 0 1 0 29.6 0 a14.8 14.8 0 1 0 -29.6 0zM4.79 104.11 a14.8 14.8 0 1 0 29.6 0 a14.8 14.8 0 1 0 -29.6 0zM4.79 -43.89 a14.8 14.8 0 1 0 29.6 0 a14.8 14.8 0 1 0 -29.6 0zM389.32 -117.89 a14.8 14.8 0 1 0 29.6 0 a14.8 14.8 0 1 0 -29.6 0zM517.5 -43.89 a14.8 14.8 0 1 0 29.6 0 a14.8 14.8 0 1 0 -29.6 0zM517.5 104.11 a14.8 14.8 0 1 0 29.6 0 a14.8 14.8 0 1 0 -29.6 0zM389.32 178.11 a14.8 14.8 0 1 0 29.6 0 a14.8 14.8 0 1 0 -29.6 0zM389.32 326.11 a14.8 14.8 0 1 0 29.6 0 a14.8 14.8 0 1 0 -29.6 0zM517.5 400.11 a14.8 14.8 0 1 0 29.6 0 a14.8 14.8 0 1 0 -29.6 0zM517.5 548.11 a14.8 14.8 0 1 0 29.6 0 a14.8 14.8 0 1 0 -29.6 0zM389.32 622.11 a14.8 14.8 0 1 0 29.6 0 a14.8 14.8 0 1 0 -29.6 0zM261.15 548.11 a14.8 14.8 0 1 0 29.6 0 a14.8 14.8 0 1 0 -29.6 0zM261.15 400.11 a14.8 14.8 0 1 0 29.6 0 a14.8 14.8 0 1 0 -29.6 0zM645.67 -117.89 a14.8 14.8 0 1 0 29.6 0 a14.8 14.8 0 1 0 -29.6 0zM773.85 -43.89 a14.8 14.8 0 1 0 29.6 0 a14.8 14.8 0 1 0 -29.6 0zM773.85 104.11 a14.8 14.8 0 1 0 29.6 0 a14.8 14.8 0 1 0 -29.6 0zM645.67 178.11 a14.8 14.8 0 1 0 29.6 0 a14.8 14.8 0 1 0 -29.6 0zM902.02 178.11 a14.8 14.8 0 1 0 29.6 0 a14.8 14.8 0 1 0 -29.6 0zM902.02 326.11 a14.8 14.8 0 1 0 29.6 0 a14.8 14.8 0 1 0 -29.6 0zM773.85 400.11 a14.8 14.8 0 1 0 29.6 0 a14.8 14.8 0 1 0 -29.6 0zM645.67 326.11 a14.8 14.8 0 1 0 29.6 0 a14.8 14.8 0 1 0 -29.6 0zM773.85 548.11 a14.8 14.8 0 1 0 29.6 0 a14.8 14.8 0 1 0 -29.6 0zM645.67 622.11 a14.8 14.8 0 1 0 29.6 0 a14.8 14.8 0 1 0 -29.6 0zM902.02 -117.89 a14.8 14.8 0 1 0 29.6 0 a14.8 14.8 0 1 0 -29.6 0zM1030.2 -43.89 a14.8 14.8 0 1 0 29.6 0 a14.8 14.8 0 1 0 -29.6 0zM1030.2 104.11 a14.8 14.8 0 1 0 29.6 0 a14.8 14.8 0 1 0 -29.6 0zM1030.2 400.11 a14.8 14.8 0 1 0 29.6 0 a14.8 14.8 0 1 0 -29.6 0zM1030.2 548.11 a14.8 14.8 0 1 0 29.6 0 a14.8 14.8 0 1 0 -29.6 0zM902.02 622.11 a14.8 14.8 0 1 0 29.6 0 a14.8 14.8 0 1 0 -29.6 0zM1286.55 104.11 a14.8 14.8 0 1 0 29.6 0 a14.8 14.8 0 1 0 -29.6 0zM1414.72 178.11 a14.8 14.8 0 1 0 29.6 0 a14.8 14.8 0 1 0 -29.6 0zM1414.72 326.11 a14.8 14.8 0 1 0 29.6 0 a14.8 14.8 0 1 0 -29.6 0zM1286.55 400.11 a14.8 14.8 0 1 0 29.6 0 a14.8 14.8 0 1 0 -29.6 0zM1158.37 326.11 a14.8 14.8 0 1 0 29.6 0 a14.8 14.8 0 1 0 -29.6 0zM1158.37 178.11 a14.8 14.8 0 1 0 29.6 0 a14.8 14.8 0 1 0 -29.6 0zM1286.55 548.11 a14.8 14.8 0 1 0 29.6 0 a14.8 14.8 0 1 0 -29.6 0zM1158.37 622.11 a14.8 14.8 0 1 0 29.6 0 a14.8 14.8 0 1 0 -29.6 0zM1671.07 326.11 a14.8 14.8 0 1 0 29.6 0 a14.8 14.8 0 1 0 -29.6 0zM1799.25 400.11 a14.8 14.8 0 1 0 29.6 0 a14.8 14.8 0 1 0 -29.6 0zM1799.25 548.11 a14.8 14.8 0 1 0 29.6 0 a14.8 14.8 0 1 0 -29.6 0zM1671.07 622.11 a14.8 14.8 0 1 0 29.6 0 a14.8 14.8 0 1 0 -29.6 0zM1542.9 548.11 a14.8 14.8 0 1 0 29.6 0 a14.8 14.8 0 1 0 -29.6 0zM1542.9 400.11 a14.8 14.8 0 1 0 29.6 0 a14.8 14.8 0 1 0 -29.6 0zM1927.43 326.11 a14.8 14.8 0 1 0 29.6 0 a14.8 14.8 0 1 0 -29.6 0zM2055.6 400.11 a14.8 14.8 0 1 0 29.6 0 a14.8 14.8 0 1 0 -29.6 0zM2055.6 548.11 a14.8 14.8 0 1 0 29.6 0 a14.8 14.8 0 1 0 -29.6 0zM1927.43 622.11 a14.8 14.8 0 1 0 29.6 0 a14.8 14.8 0 1 0 -29.6 0z" fill="rgba(11, 45, 78, 0.08)"></path><path d="M0 -140L121.25 -70L121.25 70L0 140L-121.25 70L-121.25 -70zM121.25 70L242.49 140L242.49 280L121.25 350L0 280L0 140zM0 280L121.25 350L121.25 490L0 560L-121.25 490L-121.25 350zM242.49 -140L363.74 -70L363.74 70L242.49 140L121.25 70L121.25 -70zM363.74 70L484.99 140L484.99 280L363.74 350L242.49 280L242.49 140zM242.49 280L363.74 350L363.74 490L242.49 560L121.25 490L121.25 350zM484.99 -140L606.24 -70L606.24 70L484.99 140L363.74 70L363.74 -70zM606.24 70L727.48 140L727.48 280L606.24 350L484.99 280L484.99 140zM484.99 280L606.24 350L606.24 490L484.99 560L363.74 490L363.74 350zM727.48 -140L848.73 -70L848.73 70L727.48 140L606.24 70L606.24 -70zM848.73 70L969.98 140L969.98 280L848.73 350L727.48 280L727.48 140zM727.48 280L848.73 350L848.73 490L727.48 560L606.24 490L606.24 350zM969.98 -140L1091.22 -70L1091.22 70L969.98 140L848.73 70L848.73 -70zM1091.22 70L1212.47 140L1212.47 280L1091.22 350L969.98 280L969.98 140zM969.98 280L1091.22 350L1091.22 490L969.98 560L848.73 490L848.73 350zM1212.47 -140L1333.72 -70L1333.72 70L1212.47 140L1091.22 70L1091.22 -70zM1333.72 70L1454.96 140L1454.96 280L1333.72 350L1212.47 280L1212.47 140zM1212.47 280L1333.72 350L1333.72 490L1212.47 560L1091.22 490L1091.22 350zM1454.96 -140L1576.21 -70L1576.21 70L1454.96 140L1333.72 70L1333.72 -70zM1576.21 70L1697.46 140L1697.46 280L1576.21 350L1454.96 280L1454.96 140zM1454.96 280L1576.21 350L1576.21 490L1454.96 560L1333.72 490L1333.72 350zM1697.46 -140L1818.71 -70L1818.71 70L1697.46 140L1576.21 70L1576.21 -70zM1818.71 70L1939.95 140L1939.95 280L1818.71 350L1697.46 280L1697.46 140zM1697.46 280L1818.71 350L1818.71 490L1697.46 560L1576.21 490L1576.21 350z" stroke="rgba(192, 120, 37, 0.1)" stroke-width="2"></path></g><defs><mask id="SvgjsMask1001"><rect width="1920" height="400" fill="#ffffff"></rect></mask></defs></svg>