<svg xmlns="http://www.w3.org/2000/svg" version="1.1" xmlns:xlink="http://www.w3.org/1999/xlink" xmlns:svgjs="http://svgjs.dev/svgjs" width="1920" height="400" preserveAspectRatio="none" viewBox="0 0 1920 400"><g mask="url(&quot;#SvgjsMask1048&quot;)" fill="none"><path d="M17 400L417 0L576 0L176 400z" fill="url(&quot;#SvgjsLinearGradient1049&quot;)"></path><path d="M364.8 400L764.8 0L928.3 0L528.3 400z" fill="url(&quot;#SvgjsLinearGradient1049&quot;)"></path><path d="M637.6 400L1037.6 0L1427.6 0L1027.6 400z" fill="url(&quot;#SvgjsLinearGradient1049&quot;)"></path><path d="M955.4000000000001 400L1355.4 0L1685.4 0L1285.4 400z" fill="url(&quot;#SvgjsLinearGradient1049&quot;)"></path><path d="M1863 400L1463 0L1074.5 0L1474.5 400z" fill="url(&quot;#SvgjsLinearGradient1050&quot;)"></path><path d="M1541.2 400L1141.2 0L988.2 0L1388.2 400z" fill="url(&quot;#SvgjsLinearGradient1050&quot;)"></path><path d="M1261.4 400L861.4000000000001 0L802.9000000000001 0L1202.9 400z" fill="url(&quot;#SvgjsLinearGradient1050&quot;)"></path><path d="M945.5999999999999 400L545.5999999999999 0L352.0999999999999 0L752.0999999999999 400z" fill="url(&quot;#SvgjsLinearGradient1050&quot;)"></path><path d="M1679.0149325520213 400L1920 159.0149325520212L1920 400z" fill="url(&quot;#SvgjsLinearGradient1049&quot;)"></path><path d="M0 400L240.9850674479788 400L 0 159.0149325520212z" fill="url(&quot;#SvgjsLinearGradient1050&quot;)"></path></g><defs><mask id="SvgjsMask1048"><rect width="1920" height="400" fill="#ffffff"></rect></mask><linearGradient x1="0%" y1="100%" x2="100%" y2="0%" id="SvgjsLinearGradient1049"><stop stop-color="rgba(255, 215, 0, 0.05)" offset="0"></stop><stop stop-opacity="0" stop-color="rgba(255, 215, 0, 0.05)" offset="0.66"></stop></linearGradient><linearGradient x1="100%" y1="100%" x2="0%" y2="0%" id="SvgjsLinearGradient1050"><stop stop-color="rgba(255, 215, 0, 0.05)" offset="0"></stop><stop stop-opacity="0" stop-color="rgba(255, 215, 0, 0.05)" offset="0.66"></stop></linearGradient></defs></svg>